// The site for plantuml is found here
// http://plantuml.sourceforge.net/

@startuml  example_seq_flow.png
	Alice -> Bob: Authentication Request
	
	alt successful case
	
	    Bob -> Alice: Authentication Accepted
	    
	else some kind of failure
	
	    Bob -> Alice: Authentication Failure
	    group My own label
	    	Alice -> Log : Log attack start
	        loop 1000 times
	            Alice -> Bob: DNS Attack
	        end
	    	Alice -> Log : Log attack end
	    end
	    
	else Another type of failure
	
	   Bob -> Alice: Please repeat
	   
	end
@enduml

@startuml example_class_flow.png

	abstract class AbstractList
	abstract AbstractCollection
	interface List
	interface Collection
	
	List <|-- AbstractList
	Collection <|-- AbstractCollection
	
	Collection <|- List
	AbstractCollection <|- AbstractList
	AbstractList <|-- ArrayList
	
	class ArrayList {
	  Object[] elementData
	  size()
	}
	
	enum TimeUnit {
	  DAYS
	  HOURS
	  MINUTES
	}
	
@enduml

@startuml example_act_flow.png

	(*) --> if "Some Test" then
	
	  -->[true] "activity 1"
	  
	  if "" then
	    -> "activity 3" as a3
	  else
	    if "Other test" then
	      -left-> "activity 5"
	    else
	      --> "activity 6"
	    endif
	  endif
	  
	else
	
	  ->[false] "activity 2"
	  
	endif
	
	a3 --> if "last test" then
	  --> "activity 7"
	else
	  -> "activity 8"
	endif

@enduml

@startuml example_comp_flow.png

	package "Some Group" {
	  HTTP - [First Component]
	  [Another Component]
	}
	 
	node "Other Groups" {
	  FTP - [Second Component]
	  [First Component] --> FTP
	} 
	
	cloud {
	  [Example 1]
	}
	
	
	database "MySql" {
	  folder "This is my folder" {
	    [Folder 3]
	  }
	  frame "Foo" {
	    [Frame 4]
	  }
	}
	
	
	[Another Component] --> [Example 1]
	[Example 1] --> [Folder 3]
	[Folder 3] --> [Frame 4]

@enduml


@startuml example_state_flow.png
	scale 350 width
	[*] --> NotShooting
	
	state NotShooting {
	  [*] --> Idle
	  Idle --> Configuring : EvConfig
	  Configuring --> Idle : EvConfig
	}
	
	state Configuring {
	  [*] --> NewValueSelection
	  NewValueSelection --> NewValuePreview : EvNewValue
	  NewValuePreview --> NewValueSelection : EvNewValueRejected
	  NewValuePreview --> NewValueSelection : EvNewValueSaved
	  
	  state NewValuePreview {
	     State1 -> State2
	  }
	  
	}
@enduml